<?xml version="1.0" encoding="UTF-8" standalone="no"?>
<svg
   version="1.1"
   id="Layer_1"
   x="0px"
   y="0px"
   width="512"
   viewBox="0 0 512 512"
   enable-background="new 0 0 1024 1024"
   xml:space="preserve"
   sodipodi:docname="quasar-logo.svg"
   height="512"
   inkscape:version="1.4.3 (0d15f75042, 2025-12-25)"
   xmlns:inkscape="http://www.inkscape.org/namespaces/inkscape"
   xmlns:sodipodi="http://sodipodi.sourceforge.net/DTD/sodipodi-0.dtd"
   xmlns="http://www.w3.org/2000/svg"
   xmlns:svg="http://www.w3.org/2000/svg"><defs
   id="defs19" /><sodipodi:namedview
   id="namedview19"
   pagecolor="#ffffff"
   bordercolor="#000000"
   borderopacity="0.25"
   inkscape:showpageshadow="2"
   inkscape:pageopacity="0.0"
   inkscape:pagecheckerboard="0"
   inkscape:deskcolor="#d1d1d1"
   inkscape:zoom="1.2360558"
   inkscape:cx="194.16599"
   inkscape:cy="292.46252"
   inkscape:window-width="1920"
   inkscape:window-height="1131"
   inkscape:window-x="0"
   inkscape:window-y="34"
   inkscape:window-maximized="1"
   inkscape:current-layer="Layer_1" />


















<rect
   style="fill:#155dfc;fill-opacity:0;stroke-width:1.26606"
   id="rect20"
   width="445.5575"
   height="446.58179"
   x="33.221252"
   y="32.709106"
   ry="91.99968" /><g
   id="g19"
   transform="matrix(1.1193316,0,0,1.1193316,-315.18047,-241.16049)"
   style="fill:#ff892f;fill-opacity:1"><path
     fill="#000000"
     opacity="1"
     stroke="none"
     d="m 313.57834,493.23038 c -11.62201,-48.23795 -6.65698,-94.37693 15.29312,-138.32846 22.87738,-45.8082 58.43784,-78.5286 105.70825,-98.1109 21.99118,-9.11011 45.08832,-13.65886 69.02902,-14.23514 27.65024,-0.66561 54.39377,3.37483 80.25364,13.20712 12.03485,4.57584 23.34094,10.60443 34.35882,17.20319 1.38855,0.8316 3.01025,1.56091 3.45593,4.2536 -3.60241,2.55926 -7.43762,5.40503 -11.40619,8.05078 -1.90612,1.27078 -3.51184,-0.31806 -5.0202,-1.21539 -29.95831,-17.82242 -62.4173,-26.24726 -97.20376,-25.7739 -42.6164,0.5799 -80.82822,13.87344 -113.95475,40.74979 -37.78823,30.65847 -61.57519,70.06012 -68.32348,118.30624 -8.68515,62.09351 9.61288,115.98874 54.37146,160.12869 29.27975,28.87513 64.97113,45.77668 105.68252,50.96997 97.12339,12.38947 182.76541,-48.98925 205.07041,-137.27752 15.93908,-63.09043 1.46863,-120.03275 -41.01496,-169.55078 -2.45672,-2.86353 -3.08862,-5.1778 -1.11334,-8.37937 1.48242,-2.40262 2.60944,-5.0224 3.95508,-7.51285 0.38361,-0.71005 0.97833,-1.30612 1.94696,-2.56741 15.71448,15.73309 28.19635,33.34244 37.74262,53.04184 21.21276,43.77402 26.06146,89.50565 14.74011,136.6481 -20.63214,85.91324 -99.71082,152.90494 -195.88803,152.99301 -94.45786,0.0865 -174.89548,-62.52508 -197.68323,-152.60061 z"
     id="path1"
     style="fill:#ff892f;fill-opacity:1" /><path
     fill="#000000"
     opacity="1"
     stroke="none"
     d="m 503.78787,352.36694 c 0.0674,-10.76407 0.31717,-21.10067 0.0554,-31.42434 -0.16022,-6.31809 4.01083,-5.04142 7.71366,-5.314 4.09722,-0.30157 6.04083,0.79266 5.95764,5.45621 -0.18128,10.14807 0.63635,20.29718 0.22735,30.46484 -0.10443,2.59714 -0.66162,4.52048 -2.9682,5.8129 -0.86841,0.48657 -1.78339,0.99823 -2.45734,1.70731 -9.73144,10.23861 -21.76229,12.67694 -35.38278,11.46908 -9.09457,-0.80652 -18.3168,-0.17584 -27.4819,-0.18387 -12.14923,-0.0106 -17.08484,4.84717 -17.03922,16.90262 0.14188,37.47873 0.3256,74.95731 0.45768,112.43604 0.01,2.82485 -0.25833,5.65072 -0.39963,8.47604 -0.452,9.03506 5.40292,15.46005 14.43429,15.47122 42.65931,0.0529 85.31873,0.051 127.97803,-10e-4 8.46204,-0.0103 13.06366,-5.00482 13.08698,-14.17135 0.0572,-22.49585 0.18408,-44.99466 -0.12512,-67.48664 -0.10663,-7.75653 1.11364,-14.72686 5.54248,-21.26767 3.22912,-4.7691 5.0733,-10.41784 9.47656,-16.31894 -0.61676,8.98853 4.96869,7.25315 9.48248,7.27271 7.99848,0.0347 15.99719,0.004 23.99585,0.0223 7.02863,0.0159 7.02869,0.0288 6.99738,7.27185 -0.003,0.66653 -0.0634,1.33856 -7e-5,1.99872 0.31403,3.27478 -1.25054,4.39593 -4.40734,4.36404 -9.66394,-0.0976 -19.33747,0.21066 -28.99134,-0.11298 -4.90417,-0.16445 -6.87988,1.14405 -6.66156,6.38556 0.35132,8.43317 0.0501,8.45261 8.54132,8.44535 8.33191,-0.007 16.67133,0.17627 24.99286,-0.12561 4.81897,-0.17484 7.3899,1.12994 6.54438,6.39679 -0.13037,0.81243 -0.11499,1.67621 -0.005,2.4945 0.53284,3.96884 -1.34387,5.35749 -5.13196,5.30152 -9.33008,-0.13788 -18.66266,-0.1026 -27.99426,-0.12922 -6.57245,-0.0187 -6.78729,0.19544 -6.80133,6.64701 -0.002,1.16641 0.0967,2.33948 0.005,3.49805 -0.26837,3.38653 1.09039,4.73501 4.6225,4.66922 9.82831,-0.18305 19.66583,0.0858 29.49212,-0.14582 4.16785,-0.0982 6.01642,0.94147 5.89032,5.54273 -0.22241,8.11868 0.0352,8.12707 -8.1839,8.13574 -8.83184,0.009 -17.66528,0.11603 -26.49462,-0.0276 -3.36432,-0.0547 -4.7016,1.0997 -4.90516,4.55875 -0.63287,10.75955 -0.75225,10.74698 10.01093,10.74347 3.99927,-10e-4 7.99982,-0.028 11.9975,0.0607 5.49737,0.12194 10.46142,0.0149 15.19714,-4.25293 5.28571,-4.76358 14.11322,-2.95056 18.31824,2.4335 4.50763,5.77158 3.87994,14.06921 -1.44122,19.05121 -5.23145,4.89819 -13.81483,5.0072 -18.94745,-0.38849 -2.61884,-2.75302 -5.29181,-3.53485 -8.79145,-3.45362 -6.99566,0.16239 -13.9992,0.22004 -20.99432,0.0736 -3.71002,-0.0777 -5.49841,0.79309 -6.20783,5.04212 -1.99377,11.9414 -10.68554,20.21771 -22.71594,22.13226 -3.98297,0.63391 -5.22894,2.3988 -5.14142,6.2774 0.21424,9.4936 -0.11608,19.00055 0.15436,28.49128 0.15863,5.56927 -3.38129,5.08026 -6.95135,5.09021 -3.64197,0.0101 -6.98737,0.24658 -6.78925,-5.24952 0.32391,-8.98651 0.13019,-17.99432 0.0256,-26.99169 -0.0279,-2.40332 0.48053,-5.71009 -2.44971,-6.45874 -3.81097,-0.97364 -7.93884,-1.13483 -11.78192,0.30987 -1.14398,0.43005 -1.01837,1.99585 -1.01929,3.16071 -0.008,9.99823 0.0823,19.99762 -0.0495,29.99408 -0.0363,2.75952 1.76099,4.11602 3.2608,5.86322 4.12867,4.80951 4.85999,10.72912 2.06348,15.78473 -2.62836,4.75158 -8.50983,8.04083 -13.22302,7.39508 -6.27033,-0.85907 -11.05713,-5.28272 -12.35785,-11.45496 -0.97601,-4.63153 0.39569,-8.70624 3.66028,-11.88959 2.38244,-2.32318 3.11889,-4.81335 3.06604,-8.00555 -0.14893,-8.99609 -0.16889,-17.99793 -0.01,-26.99353 0.0612,-3.46295 -1.25116,-4.62628 -4.65149,-4.76862 -10.14636,-0.42468 -10.14472,-0.54284 -10.16211,9.72779 -0.0124,7.33203 0.007,14.66424 -0.0271,21.99615 -0.0341,7.3197 -0.1806,7.44086 -7.64206,7.42517 -5.9773,-0.0126 -6.25729,-0.33941 -6.24826,-7.24884 0.0113,-8.66498 -0.17227,-17.33606 0.10406,-25.99255 0.15506,-4.85712 -1.85095,-6.73169 -6.47836,-6.37708 -1.15976,0.0888 -2.34045,0.10864 -3.49673,10e-4 -3.62458,-0.33734 -5.02655,1.13397 -4.9527,4.8761 0.1907,9.66113 -0.17819,19.33661 0.14597,28.99054 0.17565,5.23132 -2.26038,6.04632 -6.67597,5.919 -4.2525,-0.12262 -7.36496,-0.2099 -7.09933,-6.00811 0.4266,-9.31214 -0.0101,-18.66059 0.16748,-27.98889 0.0733,-3.85041 -1.29929,-5.27753 -5.19934,-5.3498 -10.20023,-0.1889 -10.19309,-0.33398 -10.18992,9.75586 0.003,8.16528 -0.23596,16.33899 0.0673,24.49286 0.2089,5.61676 -3.38,5.03119 -6.92169,5.09747 -3.70364,0.0693 -6.98651,0.21735 -6.82397,-5.23632 0.28781,-9.65632 -0.0423,-19.32966 0.13068,-28.99152 0.0602,-3.36212 -1.24588,-4.81232 -4.45347,-5.25873 -13.88278,-1.93182 -22.17593,-9.841 -24.72872,-23.62506 -0.57041,-3.07983 -2.25098,-4.06854 -5.20981,-4.02701 -7.83048,0.10987 -15.66397,0.10254 -23.49497,0.0181 -2.56766,-0.0277 -4.29639,1.06851 -6.03595,2.85489 -5.63849,5.79004 -14.16583,6.06384 -19.65002,0.82922 -5.46427,-5.21551 -5.79935,-13.72324 -0.76334,-19.37991 5.15421,-5.7894 13.55499,-6.25781 19.62805,-0.74658 2.42069,2.1968 4.87522,3.12515 8.06714,3.0502 7.49512,-0.176 14.99655,-0.23062 22.49289,-0.13489 2.98496,0.0381 4.08072,-1.07092 4.27084,-4.04715 0.71253,-11.15393 0.79563,-11.13989 -10.17871,-11.13425 -8.16522,0.004 -16.33227,-0.12097 -24.49484,0.0205 -3.44873,0.0598 -4.9675,-1.22876 -4.60754,-4.68225 0.0858,-0.82397 0.10962,-1.6799 -0.0106,-2.49573 -0.72165,-4.89605 1.02044,-6.8454 6.26446,-6.60638 8.9801,0.4093 17.99796,-0.0709 26.98773,0.21164 4.44611,0.13971 6.26044,-1.06735 6.11295,-5.84378 -0.27414,-8.87848 -0.0218,-8.87888 -9.10019,-8.88056 -7.9986,-0.001 -16.00186,-0.19043 -23.99399,0.031 -4.57959,0.12686 -7.07394,-1.17105 -6.25232,-6.20419 0.13251,-0.81159 0.10562,-1.67402 0.004,-2.49473 -0.51267,-4.16079 1.37909,-5.6101 5.44122,-5.52706 9.49448,0.19409 18.99781,-0.0271 28.49128,0.19232 4.18649,0.0968 5.82391,-1.56159 5.36141,-5.61215 -0.11279,-0.98804 -0.15393,-2.01343 -0.0248,-2.99494 0.62809,-4.77597 -1.32199,-6.42313 -6.17059,-6.25238 -9.48669,0.33411 -18.99612,-0.0311 -28.49042,0.16666 -4.03937,0.0841 -5.23718,-1.63297 -5.12137,-5.38367 0.25635,-8.30411 0.1604,-8.30969 8.35028,-8.3118 8.83185,-0.002 17.66636,-0.12555 26.49424,0.0625 3.67666,0.0783 4.96359,-1.27337 5.05426,-4.91381 0.24493,-9.83631 0.37109,-9.82639 -9.19776,-9.80503 -4.49917,0.0101 -8.99908,0.0329 -13.49749,-0.0308 -5.15751,-0.0729 -9.81559,0.0164 -14.20481,4.13696 -4.89853,4.59876 -13.64273,2.71472 -17.84418,-2.65567 -4.77557,-6.10425 -4.39321,-13.77569 0.94672,-18.99347 5.05051,-4.93496 13.44364,-5.30505 18.52667,-0.0615 2.92151,3.01373 5.9112,3.75534 9.736,3.66336 6.99508,-0.16818 13.99734,-0.14526 20.99484,-0.0593 3.21207,0.0394 4.63968,-1.18933 5.31598,-4.48609 2.84411,-13.8645 10.987,-21.19464 25.21475,-22.82464 3.16702,-0.3628 3.78882,-1.96427 3.78183,-4.63803 -0.0262,-9.99802 0.28915,-20.00498 -0.0419,-29.9914 -0.22342,-6.74213 4.25452,-5.08429 8.02679,-5.46057 4.48557,-0.44736 5.77317,1.39389 5.65592,5.7106 -0.25769,9.49121 0.1225,19.00003 -0.15003,28.49042 -0.12115,4.21939 1.60126,5.87997 5.4812,5.71826 11.45102,-0.4772 9.78626,1.48654 9.88624,-9.30704 0.0787,-8.49783 0.11923,-16.99869 -0.028,-25.49466 -0.0601,-3.46582 0.84586,-5.10888 4.73227,-5.13922 8.77988,-0.0685 8.77368,-0.25424 8.7948,8.69828 0.0204,8.6651 0.1366,17.33117 0.0362,25.99481 -0.0388,3.35458 1.15683,4.95602 4.63639,4.83169 1.98538,-0.071 3.98324,0.28626 5.97857,0.39231 1.98514,0.10559 3.70676,-0.25022 3.987,-3.1464 m 144.72361,158.34262 c 3.21514,-0.0759 5.4671,-1.56314 6.09472,-4.76397 0.77533,-3.95398 -1.25885,-6.5343 -4.91931,-7.40912 -3.69067,-0.88199 -6.30151,1.29437 -7.10907,4.64508 -0.96014,3.98321 0.92572,6.73739 5.93366,7.52801 M 378.20026,507.8523 c 2.05578,-4.10081 0.83728,-7.20212 -3.18039,-8.9972 -3.23737,-1.44644 -5.80924,-0.10238 -7.61405,2.82791 -1.83011,2.97138 -0.89273,5.55896 1.47501,7.55234 3.08539,2.59757 6.14331,1.88028 9.31943,-1.38305 m -2.05359,-113.15171 c 3.26687,-2.59353 3.90765,-5.74026 1.3638,-9.04709 -1.89225,-2.45974 -4.7023,-3.36093 -7.49384,-1.64605 -2.68173,1.64752 -4.48999,4.16973 -2.98312,7.51428 1.64725,3.65616 4.44037,5.22696 9.11316,3.17886 M 533.90289,585.492 c -1.34033,3.45288 -0.53387,6.30793 2.86377,7.83319 2.71503,1.21882 5.57233,1.02186 7.57092,-1.62451 1.93146,-2.55743 1.84504,-5.23425 -0.25506,-7.68091 -2.5044,-2.91766 -6.19324,-2.57537 -10.17963,1.47223 z"
     id="path2"
     style="fill:#ff892f;fill-opacity:1" /><path
     fill="#000000"
     opacity="1"
     stroke="none"
     d="m 662.99121,260.98932 c 0.0847,3.1289 -1.13561,5.39333 -1.92346,6.92775 -15.36816,29.93152 -29.56232,58.29851 -44.94757,88.2213 -21.48023,41.77676 -42.96472,83.55209 -64.22211,125.44232 -12.26312,24.16586 -31.59589,37.39935 -58.71493,36.4555 -24.63578,-0.85736 -42.65586,-13.66903 -52.32688,-36.37704 -9.24502,-21.70783 -5.87347,-42.33637 8.5878,-61.07068 6.1069,-7.91135 14.32581,-13.42987 22.14615,-19.33655 58.3653,-44.08343 116.25082,-86.90076 175.97198,-131.07547 4.96707,-3.67405 8.67039,-6.74301 14.90723,-9.1058 -1.43573,1.70474 -2.79474,3.1813 -4.31091,4.47351 -19.76703,16.84689 -39.53003,33.6987 -59.3468,50.48691 -22.86933,19.37426 -45.66053,38.8439 -68.72846,57.97943 -21.01562,17.43307 -42.6098,34.17422 -63.46496,51.79324 -14.09177,11.90515 -18.08603,31.80405 -11.19117,49.32636 6.52253,16.57605 23.52604,28.32086 41.59806,27.39666 19.6315,-1.0039 33.15146,-11.52343 41.17129,-29.33026 1.98188,-4.40045 3.89453,-8.85287 6.20575,-13.08093 23.17352,-42.3927 47.90424,-83.88281 72.96246,-125.17587 15.02601,-24.76108 30.40577,-49.3075 45.62653,-73.95038 z"
     id="path3"
     sodipodi:nodetypes="csssssscscsssssssssc"
     style="fill:#ff892f;fill-opacity:1" /><path
     fill="#000000"
     opacity="1"
     stroke="none"
     d="m 627.90698,382.98416 c 5.15106,0.46329 8.86188,-0.72088 12.51239,-4.22345 5.16614,-4.95676 13.49793,-3.90671 18.45233,1.33145 4.53162,4.79114 4.69458,12.86927 0.37049,18.361 -4.25928,5.40942 -12.54505,7.29135 -17.79999,2.83624 -4.86133,-4.1214 -9.97247,-4.51105 -15.68518,-4.38962 -5.47998,0.11652 -10.96814,-0.0946 -16.45075,-0.23673 -0.58801,-0.0152 -1.16308,-0.53051 -1.69165,-0.7882 1.37506,-9.78821 4.72602,-12.875 13.81897,-12.88974 1.99701,-0.003 3.99408,-8.9e-4 6.47339,-9.5e-4 m 15.1131,3.61664 c -1.53357,3.82111 -0.65686,6.98007 3.11334,8.69144 3.08051,1.39825 5.97382,0.36346 7.71851,-2.54129 1.74438,-2.90418 1.29474,-5.918 -1.39929,-7.98938 -3.21668,-2.4733 -6.43598,-2.22538 -9.43256,1.83923 z"
     id="path10"
     style="fill:#ff892f;fill-opacity:1" /><path
     fill="#000000"
     opacity="1"
     stroke="none"
     d="m 535.7323,340.7926 c -2.44751,1.02347 -3.02228,-0.13223 -3.01959,-1.96048 0.01,-6.66476 0.026,-13.32959 0.059,-19.99429 0.01,-1.99817 0.99255,-3.10056 3.05597,-3.11948 0.49969,-0.005 0.99945,-0.0227 1.49878,-0.0434 8.91412,-0.36829 8.03143,-0.2497 9.18756,8.33432 1.23797,9.19165 -4.54578,12.62793 -10.78174,16.78329 z"
     id="path12"
     style="fill:#ff892f;fill-opacity:1" /><path
     fill="#000000"
     opacity="1"
     stroke="none"
     d="m 535.62891,448.69336 c -2.63221,3.54004 -2.87336,7.35702 -3.34778,11.18021 -3.34564,26.96212 -33.00528,42.84326 -56.02027,26.86071 -20.2109,-14.03537 -19.15924,-45.16748 2.03022,-58.93869 0.69763,-0.4534 1.37014,-1.04205 2.14224,-1.27014 16.44409,-4.85785 26.79147,-18.01865 38.79507,-28.78445 30.86249,-27.68009 62.31458,-54.67166 93.91101,-81.50104 0.98707,-0.83817 1.92273,-1.8635 5.01624,-2.05301 -27.0622,45.70172 -54.49561,90.06491 -82.52673,134.50641 m -53.39728,-3.92661 c -6.48703,9.11338 -6.49677,17.87717 -0.0284,25.64542 5.2062,6.2525 14.60647,8.30582 22.33084,4.87787 9.23867,-4.10004 13.14511,-11.9411 11.33963,-22.93012 -0.40418,-2.46011 0.19714,-4.48416 1.59497,-6.54989 19.96651,-29.50829 67.23269,-87.92532 79.24812,-106.6164 -1.21571,0.70277 -1.85162,1.4411 -3.26556,2.62261 -17.09863,16.07882 -72.70974,76.34022 -89.76714,92.46278 -2.09051,1.97595 -4.07922,3.80869 -7.2746,3.77197 -5.47152,-0.0628 -9.95956,2.28675 -14.17782,6.71576 z"
     id="path19"
     style="fill:#ff892f;fill-opacity:1"
     sodipodi:nodetypes="cssssssccsssscccssss" /></g>
</svg>
